<?xml version="1.0" standalone="no"?>
<!DOCTYPE svg PUBLIC "-//W3C//DTD SVG 20010904//EN"
 "http://www.w3.org/TR/2001/REC-SVG-20010904/DTD/svg10.dtd">
<svg version="1.0" xmlns="http://www.w3.org/2000/svg"
 width="512.000000pt" height="512.000000pt" viewBox="0 0 512.000000 512.000000"
 preserveAspectRatio="xMidYMid meet">
<metadata>
Created by potrace 1.14, written by Peter Selinger 2001-2017
</metadata>
<g transform="translate(0.000000,512.000000) scale(0.100000,-0.100000)"
fill="#000000" stroke="none">
<path d="M3774 5091 c-74 -55 -2381 -2375 -2392 -2406 -18 -48 -242 -1199
-242 -1242 0 -56 35 -104 88 -123 40 -14 59 -11 644 104 332 66 619 125 638
133 24 9 405 383 1223 1201 654 653 1195 1199 1203 1214 17 32 18 86 3 125
-11 29 -915 944 -983 994 -55 41 -127 41 -182 0z m-1467 -3292 c-12 -3 -147
-30 -300 -60 l-278 -53 -109 109 -109 110 54 275 c30 151 57 286 60 299 6 22
40 -9 356 -325 307 -307 346 -350 326 -355z"/>
<path d="M795 1246 c-449 -182 -682 -493 -614 -818 37 -174 178 -314 365 -362
88 -23 274 -21 389 3 184 39 439 150 610 264 44 29 178 120 299 201 360 243
563 326 871 356 196 20 428 -2 676 -64 287 -71 465 -170 642 -356 95 -100 154
-190 217 -334 50 -113 75 -136 153 -136 78 0 133 39 143 102 7 39 -37 163 -94
268 -207 379 -537 621 -1024 749 -210 56 -284 65 -518 65 -185 1 -231 -3 -330
-22 -378 -76 -648 -203 -1058 -499 -359 -260 -721 -396 -906 -341 -55 16 -138
99 -154 154 -32 108 -4 184 107 294 90 89 196 158 329 212 108 44 138 66 151
114 10 34 1 96 -17 131 -34 63 -113 69 -237 19z"/>
</g>
</svg>
